<svg width="227" height="48" viewBox="0 0 227 48" fill="none" xmlns="http://www.w3.org/2000/svg">
<g clip-path="url(#clip0_18_234)">
<path d="M31.0876 45.661V1L57.7967 45.661V1" stroke="white" stroke-width="1.97034"/>
<path d="M85.1624 45.88V1" stroke="white" stroke-width="1.97034"/>
<path d="M158.941 45.88V1" stroke="white" stroke-width="1.97034"/>
<path d="M121.942 45.6609V1.43774" stroke="white" stroke-width="1.97034"/>
<path d="M107.931 1.43774H136.172" stroke="white" stroke-width="1.97034"/>
<path d="M3.50293 1V45.88" stroke="white" stroke-width="1.97034"/>
</g>
<path d="M207.355 45.5691C205.516 43.6602 205.822 40.3149 207.574 39.0013C208.45 38.1256 209.544 37.4688 212.609 34.6228C216.988 30.557 218.958 24.5522 218.301 20.6115C217.644 16.6708 208.332 10.8315 200.568 10.9787C192.222 11.1369 184.982 17.1087 183.054 22.8007C178.457 36.3742 186.557 44.2556 186.557 44.2556C186.557 44.2556 176.705 37.9067 177.362 23.2386C177.609 17.7192 179.165 14.4172 182.616 10.103C185.594 6.38126 190.722 2.54546 197.284 1.34594C203.847 0.146416 213.174 1.95141 219.396 8.57052C225.618 15.1896 226.839 24.99 225.526 29.8064C224.212 34.6228 220.491 42.5041 213.266 46.4448C211.039 47.1409 208.974 47.2499 207.355 45.5691Z" fill="#D9D9D9"/>
<path d="M207.355 45.5691C205.516 43.6602 205.822 40.3149 207.574 39.0013C208.45 38.1256 209.544 37.4688 212.609 34.6228C216.988 30.557 218.958 24.5522 218.301 20.6115C217.644 16.6708 208.332 10.8315 200.568 10.9787C192.222 11.1369 184.982 17.1087 183.054 22.8007C178.457 36.3742 186.557 44.2556 186.557 44.2556C186.557 44.2556 176.705 37.9067 177.362 23.2386C177.609 17.7192 179.165 14.4172 182.616 10.103C185.594 6.38126 190.722 2.54546 197.284 1.34594C203.847 0.146416 213.174 1.95141 219.396 8.57052C225.618 15.1896 226.839 24.99 225.526 29.8064C224.212 34.6228 220.491 42.5041 213.266 46.4448C211.039 47.1409 208.974 47.2499 207.355 45.5691Z" fill="white"/>
<path d="M207.355 45.5691C205.516 43.6602 205.822 40.3149 207.574 39.0013C208.45 38.1256 209.544 37.4688 212.609 34.6228C216.988 30.557 218.958 24.5522 218.301 20.6115C217.644 16.6708 208.332 10.8315 200.568 10.9787C192.222 11.1369 184.982 17.1087 183.054 22.8007C178.457 36.3742 186.557 44.2556 186.557 44.2556C186.557 44.2556 176.705 37.9067 177.362 23.2386C177.609 17.7192 179.165 14.4172 182.616 10.103C185.594 6.38126 190.722 2.54546 197.284 1.34594C203.847 0.146416 213.174 1.95141 219.396 8.57052C225.618 15.1896 226.839 24.99 225.526 29.8064C224.212 34.6228 220.491 42.5041 213.266 46.4448C211.039 47.1409 208.974 47.2499 207.355 45.5691Z" stroke="white" stroke-width="0.437853"/>
<defs>
<clipPath id="clip0_18_234">
<rect width="165.946" height="44.2232" fill="white" transform="translate(0 1)"/>
</clipPath>
</defs>
</svg>
